HIERARCHY
ROOT Hips
{
	OFFSET 0.000000 0.000000 0.000000 
	CHANNELS 6 Xposition Yposition Zposition Yrotation Xrotation Zrotation
	JOINT Spine
	{
		OFFSET 0.000000 0.072080 0.012321 
		CHANNELS 3 Xrotation Yrotation Zrotation
		JOINT Spine1
		{
			OFFSET 0.000000 0.126984 -0.001294 
			CHANNELS 3 Xrotation Yrotation Zrotation
			JOINT Spine2
			{
				OFFSET 0.000000 0.106559 -0.010096 
				CHANNELS 3 Xrotation Yrotation Zrotation
				JOINT Neck
				{
					OFFSET 0.000000 0.108417 -0.034017 
					CHANNELS 3 Xrotation Yrotation Zrotation
					JOINT Neck1
					{
						OFFSET 0.000000 0.033906 0.007241 
						CHANNELS 3 Xrotation Yrotation Zrotation
						JOINT Head
						{
							OFFSET 0.000000 0.031458 0.006707 
							CHANNELS 3 Xrotation Yrotation Zrotation
							End Site
							{
								OFFSET 0.000000 0.179920 0.000962 
							}
						}
					}
				}
				JOINT LeftShoulder
				{
					OFFSET 0.048002 0.079586 -0.029634 
					CHANNELS 3 Zrotation Xrotation Yrotation
					JOINT LeftArm
					{
						OFFSET 0.096243 -0.008695 -0.014012 
						CHANNELS 3 Zrotation Xrotation Yrotation
						JOINT LeftForeArm
						{
							OFFSET 0.216305 0.000000 0.000000 
							CHANNELS 3 Xrotation Zrotation Yrotation
							JOINT LeftHand
							{
								OFFSET 0.217764 0.000000 0.000000 
								CHANNELS 3 Zrotation Yrotation Xrotation
								JOINT LeftHandThumb1
								{
									OFFSET 0.018582 -0.007835 0.020476 
									CHANNELS 3 Zrotation Xrotation Yrotation
									JOINT LeftHandThumb2
									{
										OFFSET 0.026269 -0.007835 0.022186 
										CHANNELS 3 Zrotation Xrotation Yrotation
										JOINT LeftHandThumb3
										{
											OFFSET 0.035170 -0.010504 0.017018 
											CHANNELS 3 Zrotation Xrotation Yrotation
											End Site
											{
												OFFSET 0.020312 -0.007813 0.007813 
											}
										}
									}
								}
								JOINT LeftHandMiddle1
								{
									OFFSET 0.081749 0.004803 0.003358 
									CHANNELS 3 Zrotation Xrotation Yrotation
									JOINT LeftHandMiddle2
									{
										OFFSET 0.045251 0.000000 0.000000 
										CHANNELS 3 Zrotation Xrotation Yrotation
										JOINT LeftHandMiddle3
										{
											OFFSET 0.029009 0.000000 0.000000 
											CHANNELS 3 Zrotation Xrotation Yrotation
											End Site
											{
												OFFSET 0.017969 0.000000 0.000000 
											}
										}
									}
								}
								JOINT LeftHandIndex1
								{
									OFFSET 0.081207 0.004803 0.021137 
									CHANNELS 3 Zrotation Xrotation Yrotation
									JOINT LeftHandIndex2
									{
										OFFSET 0.043354 0.000000 0.000000 
										CHANNELS 3 Zrotation Xrotation Yrotation
										JOINT LeftHandIndex3
										{
											OFFSET 0.026493 0.000000 0.000000 
											CHANNELS 3 Zrotation Xrotation Yrotation
											End Site
											{
												OFFSET 0.019531 0.000000 0.000000 
											}
										}
									}
								}
								JOINT LeftHandRing1
								{
									OFFSET 0.080666 0.002509 -0.014652 
									CHANNELS 3 Zrotation Xrotation Yrotation
									JOINT LeftHandRing2
									{
										OFFSET 0.042541 0.000000 0.000000 
										CHANNELS 3 Zrotation Xrotation Yrotation
										JOINT LeftHandRing3
										{
											OFFSET 0.029009 0.000000 0.000000 
											CHANNELS 3 Zrotation Xrotation Yrotation
											End Site
											{
												OFFSET 0.015625 0.000000 0.000000 
											}
										}
									}
								}
								JOINT LeftHandPinky1
								{
									OFFSET 0.078227 -0.000612 -0.030993 
									CHANNELS 3 Zrotation Xrotation Yrotation
									JOINT LeftHandPinky2
									{
										OFFSET 0.028721 0.000000 0.000000 
										CHANNELS 3 Zrotation Xrotation Yrotation
										JOINT LeftHandPinky3
										{
											OFFSET 0.021963 0.000000 0.000000 
											CHANNELS 3 Zrotation Xrotation Yrotation
											End Site
											{
												OFFSET 0.022656 0.000000 0.000000 
											}
										}
									}
								}
							}
						}
					}
				}
				JOINT RightShoulder
				{
					OFFSET -0.047970 0.079586 -0.029634 
					CHANNELS 3 Zrotation Xrotation Yrotation
					JOINT RightArm
					{
						OFFSET -0.096274 -0.008695 -0.014012 
						CHANNELS 3 Zrotation Xrotation Yrotation
						JOINT RightForeArm
						{
							OFFSET -0.216305 0.000000 0.000000 
							CHANNELS 3 Xrotation Zrotation Yrotation
							JOINT RightHand
							{
								OFFSET -0.217764 0.000000 0.000000 
								CHANNELS 3 Zrotation Yrotation Xrotation
								JOINT RightHandThumb1
								{
									OFFSET -0.019670 -0.007318 0.019638 
									CHANNELS 3 Zrotation Xrotation Yrotation
									JOINT RightHandThumb2
									{
										OFFSET -0.025498 -0.008492 0.023179 
										CHANNELS 3 Zrotation Xrotation Yrotation
										JOINT RightHandThumb3
										{
											OFFSET -0.034504 -0.010705 0.016680 
											CHANNELS 3 Zrotation Xrotation Yrotation
											End Site
											{
												OFFSET -0.020312 -0.007813 0.007813 
											}
										}
									}
								}
								JOINT RightHandIndex1
								{
									OFFSET -0.081770 0.003825 0.021187 
									CHANNELS 3 Zrotation Xrotation Yrotation
									JOINT RightHandIndex2
									{
										OFFSET -0.042006 0.000000 0.000000 
										CHANNELS 3 Zrotation Xrotation Yrotation
										JOINT RightHandIndex3
										{
											OFFSET -0.026449 0.000000 0.000000 
											CHANNELS 3 Zrotation Xrotation Yrotation
											End Site
											{
												OFFSET -0.020312 0.000000 0.000000 
											}
										}
									}
								}
								JOINT RightHandMiddle1
								{
									OFFSET -0.084059 0.003825 0.003342 
									CHANNELS 3 Zrotation Xrotation Yrotation
									JOINT RightHandMiddle2
									{
										OFFSET -0.043881 0.000000 0.000000 
										CHANNELS 3 Zrotation Xrotation Yrotation
										JOINT RightHandMiddle3
										{
											OFFSET -0.029191 0.000000 0.000000 
											CHANNELS 3 Zrotation Xrotation Yrotation
											End Site
											{
												OFFSET -0.017969 0.000000 0.000000 
											}
										}
									}
								}
								JOINT RightHandRing1
								{
									OFFSET -0.081798 0.003030 -0.015127 
									CHANNELS 3 Zrotation Xrotation Yrotation
									JOINT RightHandRing2
									{
										OFFSET -0.042198 0.000000 0.000000 
										CHANNELS 3 Zrotation Xrotation Yrotation
										JOINT RightHandRing3
										{
											OFFSET -0.026497 0.000000 0.000000 
											CHANNELS 3 Zrotation Xrotation Yrotation
											End Site
											{
												OFFSET -0.017188 0.000000 0.000000 
											}
										}
									}
								}
								JOINT RightHandPinky1
								{
									OFFSET -0.077902 -0.000930 -0.030891 
									CHANNELS 3 Zrotation Xrotation Yrotation
									JOINT RightHandPinky2
									{
										OFFSET -0.028538 0.000000 0.000000 
										CHANNELS 3 Zrotation Xrotation Yrotation
										JOINT RightHandPinky3
										{
											OFFSET -0.021734 0.000000 0.000000 
											CHANNELS 3 Zrotation Xrotation Yrotation
											End Site
											{
												OFFSET -0.022656 0.000000 0.000000 
											}
										}
									}
								}
							}
						}
					}
				}
			}
		}
	}
	JOINT LeftUpLeg
	{
		OFFSET 0.075264 -0.025573 0.000000 
		CHANNELS 3 Xrotation Yrotation Zrotation
		JOINT LeftLeg
		{
			OFFSET 0.000000 -0.326016 -0.013516 
			CHANNELS 3 Xrotation Yrotation Zrotation
			JOINT LeftFoot
			{
				OFFSET 0.000098 -0.306172 -0.006623 
				CHANNELS 3 Xrotation Yrotation Zrotation
				JOINT LeftToeBase
				{
					OFFSET -0.001432 -0.095259 0.064705 
					CHANNELS 3 Xrotation Yrotation Zrotation
					End Site
					{
						OFFSET 0.000000 0.000000 0.079438 
					}
				}
			}
		}
	}
	JOINT RightUpLeg
	{
		OFFSET -0.075264 -0.025573 0.000000 
		CHANNELS 3 Xrotation Yrotation Zrotation
		JOINT RightLeg
		{
			OFFSET 0.000000 -0.326016 -0.013516 
			CHANNELS 3 Xrotation Yrotation Zrotation
			JOINT RightFoot
			{
				OFFSET 0.000098 -0.306172 -0.006623 
				CHANNELS 3 Xrotation Yrotation Zrotation
				JOINT RightToeBase
				{
					OFFSET -0.001432 -0.095259 0.064705 
					CHANNELS 3 Xrotation Yrotation Zrotation
					End Site
					{
						OFFSET 0.000025 0.000000 0.079438 
					}
				}
			}
		}
	}
}
MOTION
Frames: 4
Frame Time: 0.033333
0.033558 0.740148 0.217217 -107.106598 2.908200 0.636200 -0.572200 -2.729800 -0.311600 -1.137000 -5.439400 -0.313100 -1.137000 -5.439400 -0.313100 -0.358200 -8.693800 -0.196400 -0.000000 0.000000 -0.000000 7.074200 -24.295900 9.242900 -15.611300 5.078400 -15.890100 -50.392799 -8.014700 -1.751900 21.694799 -7.760500 -26.067801 4.509500 7.354400 30.131800 -15.170000 -0.577900 12.912100 2.633800 -15.016600 -9.341600 3.650800 -3.261600 -4.251000 -24.541800 -1.601500 -11.108400 -43.210602 2.002400 -9.154300 -0.000000 -0.000000 0.000000 -3.153100 -0.759200 -8.885700 -43.949600 0.577500 -11.230600 0.000000 -0.000000 -0.000000 -27.061199 -9.130200 -8.134200 -69.140800 7.229800 -8.364900 0.000000 0.000000 -0.000000 -36.393299 -13.304100 -8.566900 -59.668499 8.818500 -5.838500 -0.000000 0.000000 0.000000 14.064600 3.457700 6.458500 47.183399 -15.729000 -16.785000 15.804500 7.673100 32.951599 -11.818200 6.063800 21.368099 0.196500 -7.445200 -18.131500 -4.732200 25.787399 9.903800 -3.141100 -3.030300 4.239200 28.005899 -0.806100 3.082800 62.399601 1.872900 8.565400 0.000000 -0.000000 0.000000 37.575001 -1.279700 6.400100 69.435699 2.747100 10.592700 -0.000000 0.000000 0.000000 41.372002 2.674000 8.250200 81.503700 10.110600 8.584600 0.000000 -0.000000 0.000000 44.959301 5.283300 12.354100 103.372101 17.652300 5.658900 -0.000000 0.000000 -0.000000 -16.605499 11.880200 9.882900 41.972500 6.315300 -0.578300 -5.127300 1.015300 -13.127600 -12.906300 1.743400 1.674900 -34.950298 -6.466300 -8.016700 34.005299 -18.373301 -7.112900 -4.814500 -0.084200 -1.469700 -6.303600 -3.411200 2.921500 
0.030666 0.737335 0.215852 -111.972298 3.043100 0.783300 -0.662200 -3.305100 -0.184500 -1.302600 -6.594700 0.006200 -1.302600 -6.594700 0.006200 0.323100 -6.778200 0.165100 -0.000000 0.000000 -0.000000 6.629700 -20.573299 8.491500 -15.650900 4.999100 -15.507700 -50.950298 -7.371600 -4.728000 22.095400 -7.500800 -28.652000 3.485300 4.944500 30.990700 -15.169500 -0.577500 12.912300 2.059200 -12.725400 -10.385500 3.650800 -3.261600 -4.251000 -27.077801 -1.122400 -11.679900 -47.019901 2.639600 -9.715800 -0.000000 0.000000 -0.000000 -5.946100 -0.400600 -9.026500 -46.516899 1.063300 -11.456600 0.000000 0.000000 -0.000000 -29.134800 -8.817200 -8.746900 -70.789703 7.470300 -8.469900 0.000000 0.000000 -0.000000 -37.800701 -12.938400 -9.240800 -61.394299 8.995900 -5.949900 -0.000000 0.000000 -0.000000 14.273500 3.352100 5.961600 43.780399 -16.305700 -20.034500 15.280200 8.200100 32.091301 -10.543300 5.307400 20.125601 -0.091400 -7.767400 -18.472200 -4.270300 26.354401 9.217700 -3.141100 -3.030300 4.239300 27.976601 -0.920700 2.764700 62.494598 1.882100 8.580700 0.000000 -0.000000 -0.000000 37.625599 -1.334000 6.302300 69.156601 2.711900 10.557400 -0.000000 -0.000000 -0.000000 41.296200 2.700100 8.280500 80.210403 9.873200 8.613200 0.000000 0.000000 -0.000000 44.794899 5.610100 12.859200 100.826302 17.274900 6.129000 -0.000000 0.000000 -0.000000 -14.781300 12.111700 9.832300 42.131802 5.946100 -1.157900 -6.344200 1.196000 -14.522000 -13.362900 1.516200 2.825300 -33.933498 -6.124500 -9.344800 28.168699 -21.267799 -8.739000 -3.555800 -0.119900 -1.684100 -6.332800 -2.920500 2.501600 
0.027447 0.733913 0.210806 -116.854797 3.331000 0.785100 -0.730800 -3.531800 -0.065300 -1.424500 -7.055100 0.315600 -1.424500 -7.055100 0.315600 0.747100 -5.348000 0.405700 -0.000000 0.000000 -0.000000 6.256200 -17.796101 8.134700 -15.912300 4.999700 -15.382300 -51.322399 -6.832700 -8.285100 22.243900 -7.074000 -30.891100 5.116200 2.331400 31.756100 -15.169800 -0.577700 12.912300 1.243100 -8.021900 -10.158900 3.650800 -3.261600 -4.251000 -30.413700 -0.494200 -12.405700 -51.557301 3.448300 -10.325800 -0.000000 0.000000 0.000000 -9.327900 0.043100 -9.353700 -49.554401 1.658100 -11.690900 0.000000 -0.000000 0.000000 -31.649200 -8.363900 -9.538100 -72.764702 7.756100 -8.595900 -0.000000 -0.000000 0.000000 -39.891102 -12.484200 -10.050700 -63.597000 9.221200 -6.089100 0.000000 -0.000000 -0.000000 15.183700 3.203600 5.213000 40.349098 -16.877501 -22.798700 14.886800 8.975200 29.580900 -9.184000 4.145800 19.844299 -0.768200 -8.434100 -19.378500 -4.056800 27.164301 8.755500 -3.141100 -3.030300 4.239200 26.879499 -1.032900 2.407900 62.123402 1.824600 8.578300 0.000000 0.000000 0.000000 36.609600 -1.453500 6.054700 68.418999 2.596700 10.474000 -0.000000 0.000000 -0.000000 40.790100 2.699200 8.244500 78.824303 9.618100 8.638100 0.000000 -0.000000 0.000000 44.196098 5.856800 13.233700 98.049599 16.839800 6.621900 0.000000 -0.000000 0.000000 -13.005800 12.072600 9.623200 42.145100 8.188100 -2.057200 -7.384700 1.361900 -15.584100 -13.946300 1.551300 2.808900 -32.718102 -5.784400 -10.161500 21.888800 -23.464701 -9.550200 -2.293500 -0.135500 -1.996800 -6.985100 -2.284600 1.947100 
0.024006 0.730153 0.201302 -121.795700 3.707100 0.470200 -0.749800 -3.511000 0.105900 -1.447800 -7.027300 0.704800 -1.447800 -7.027300 0.704800 0.830100 -4.488700 0.466200 -0.000000 0.000000 -0.000000 5.977700 -16.094000 8.052600 -16.378000 5.153400 -15.848100 -51.187099 -6.656600 -11.944800 21.005600 -6.646500 -33.122601 7.548000 -0.173700 30.816401 -15.170000 -0.577700 12.912100 0.550900 -4.722500 -8.310100 3.650800 -3.261600 -4.251000 -34.127201 0.259400 -13.168800 -56.672901 4.414500 -10.935000 0.000000 -0.000000 0.000000 -13.096400 0.554900 -9.616600 -52.869301 2.333900 -11.896400 0.000000 0.000000 0.000000 -34.457298 -7.761700 -10.468100 -75.252296 8.126900 -8.732900 0.000000 0.000000 -0.000000 -42.439899 -12.091600 -10.777500 -66.274399 9.506800 -6.240500 0.000000 0.000000 -0.000000 16.015900 3.065600 4.558200 38.685101 -18.001301 -24.316601 13.570200 9.400800 24.738001 -8.008600 3.243400 21.211000 -0.051500 -7.651600 -20.199499 -5.382500 26.323500 10.195600 -3.141100 -3.030300 4.239300 21.057899 -1.082900 2.024000 58.764000 1.358100 8.420600 -0.000000 0.000000 -0.000000 31.536699 -1.888700 5.066100 64.725502 1.991700 10.054700 -0.000000 -0.000000 -0.000000 38.402901 2.502900 7.835500 77.247902 9.340400 8.643500 0.000000 -0.000000 0.000000 42.330898 5.847900 13.247700 94.210800 16.219101 7.214500 -0.000000 0.000000 -0.000000 -11.480400 11.742100 9.664600 42.500801 11.368600 -2.860000 -7.709700 1.452300 -16.656900 -15.185400 1.829500 1.997000 -31.800100 -5.414000 -9.945400 17.435600 -25.093800 -9.548100 -1.459700 -0.139800 -2.805200 -7.235600 -2.546400 2.155900 
